<?xml version="1.0" encoding="UTF-8" standalone="no"?>
<!-- Created with Inkscape (http://www.inkscape.org/) -->

<svg
   xmlns:dc="http://purl.org/dc/elements/1.1/"
   xmlns:cc="http://creativecommons.org/ns#"
   xmlns:rdf="http://www.w3.org/1999/02/22-rdf-syntax-ns#"
   xmlns:svg="http://www.w3.org/2000/svg"
   xmlns="http://www.w3.org/2000/svg"
   xmlns:sodipodi="http://sodipodi.sourceforge.net/DTD/sodipodi-0.dtd"
   xmlns:inkscape="http://www.inkscape.org/namespaces/inkscape"
   width="125"
   height="50"
   viewBox="0 0 33.072916 13.229167"
   version="1.1"
   id="svg8"
   inkscape:version="0.92.4 5da689c313, 2019-01-14"
   sodipodi:docname="tithi.svg">
  <defs
     id="defs2" />
  <sodipodi:namedview
     id="base"
     pagecolor="#ffffff"
     bordercolor="#666666"
     borderopacity="1.0"
     inkscape:pageopacity="0.0"
     inkscape:pageshadow="2"
     inkscape:zoom="3.959798"
     inkscape:cx="51.224644"
     inkscape:cy="79.285139"
     inkscape:document-units="px"
     inkscape:current-layer="layer1"
     showgrid="true"
     inkscape:window-width="1920"
     inkscape:window-height="1016"
     inkscape:window-x="0"
     inkscape:window-y="27"
     inkscape:window-maximized="1"
     units="px">
    <inkscape:grid
       type="xygrid"
       id="grid949" />
  </sodipodi:namedview>
  <metadata
     id="metadata5">
    <rdf:RDF>
      <cc:Work
         rdf:about="">
        <dc:format>image/svg+xml</dc:format>
        <dc:type
           rdf:resource="http://purl.org/dc/dcmitype/StillImage" />
        <dc:title></dc:title>
      </cc:Work>
    </rdf:RDF>
  </metadata>
  <g
     inkscape:label="Layer 1"
     inkscape:groupmode="layer"
     id="layer1"
     transform="translate(0,-283.77083)">
    <g
       id="g891">
      <rect
         inkscape:export-ydpi="300"
         inkscape:export-xdpi="300"
         y="283.77081"
         x="6.1767579e-08"
         height="13.229172"
         width="33.072922"
         id="rect983"
         style="fill:#ffffff;fill-opacity:1;stroke:none;stroke-width:0.61681324;stroke-miterlimit:4;stroke-dasharray:none" />
      <g
         id="text879"
         style="font-style:normal;font-weight:normal;font-size:10.58333302px;line-height:1.25;font-family:sans-serif;letter-spacing:0px;word-spacing:0px;fill:#01b55a;fill-opacity:1;stroke:none;stroke-width:0.26458332"
         aria-label="tithi">
        <path
           id="path870"
           style="fill:#00683e;fill-opacity:1"
           d="m 13.229167,294.35415 q -0.910167,0 -1.439334,-0.49741 -0.518583,-0.49742 -0.518583,-1.30175 v -2.64584 h -0.687917 v -0.63499 l 1.5875,-1.5875 h 0.582084 v 1.27 H 13.97 v 0.95249 h -1.217083 v 2.64584 q 0,0.42333 0.15875,0.635 0.15875,0.21166 0.423333,0.21166 0.3175,0 0.624417,-0.21166 0.137583,-0.0953 0.275166,-0.21167 h 0.105834 l 0.47625,0.84667 q -0.275167,0.17991 -0.47625,0.26458 -0.5715,0.26458 -1.11125,0.26458 z" />
        <path
           id="path872"
           style="font-style:normal;font-variant:normal;font-weight:bold;font-stretch:normal;font-family:Scada;-inkscape-font-specification:'Scada Bold';fill:#00683e;fill-opacity:1"
           d="m 16.288411,288.26874 q -0.3175,0 -0.560916,-0.23283 -0.232834,-0.24342 -0.232834,-0.56092 0,-0.3175 0.232834,-0.55033 0.243416,-0.24342 0.560916,-0.24342 0.3175,0 0.550334,0.24342 0.243416,0.23283 0.243416,0.55033 0,0.3175 -0.243416,0.56092 -0.232834,0.23283 -0.550334,0.23283 z m -0.740833,5.97958 v -5.29166 h 1.481667 v 5.29166 z" />
        <path
           id="path874"
           style="font-style:normal;font-variant:normal;font-weight:bold;font-stretch:normal;font-family:Scada;-inkscape-font-specification:'Scada Bold';fill:#01b55a;fill-opacity:1;stroke-width:0.26458332"
           d="m 20.567219,294.35415 q -0.910166,0 -1.439333,-0.49741 -0.518583,-0.49742 -0.518583,-1.30175 v -2.64584 h -0.687917 v -0.63499 l 1.5875,-1.5875 h 0.582083 v 1.27 h 1.217084 v 0.95249 h -1.217084 v 2.64584 q 0,0.42333 0.15875,0.635 0.15875,0.21166 0.423334,0.21166 0.3175,0 0.624416,-0.21166 0.137584,-0.0953 0.275167,-0.21167 h 0.105833 l 0.47625,0.84667 q -0.275166,0.17991 -0.47625,0.26458 -0.5715,0.26458 -1.11125,0.26458 z" />
        <path
           id="path876"
           style="font-style:normal;font-variant:normal;font-weight:bold;font-stretch:normal;font-family:Scada;-inkscape-font-specification:'Scada Bold';fill:#01b55a;fill-opacity:1;stroke-width:0.26458332"
           d="m 22.885631,287.26332 0.423333,-0.42333 h 1.058333 v 2.48708 q 0.105834,-0.10583 0.306917,-0.23283 0.423333,-0.24342 0.85725,-0.24342 0.963083,0 1.481667,0.52917 0.529166,0.51858 0.529166,1.48166 v 3.38667 h -1.481666 v -3.38667 q 0,-0.49741 -0.211667,-0.75141 -0.211667,-0.254 -0.582083,-0.254 -0.34925,0 -0.66675,0.3175 -0.105834,0.127 -0.232834,0.3175 v 3.75708 h -1.481666 z" />
        <path
           id="path878"
           style="font-style:normal;font-variant:normal;font-weight:bold;font-stretch:normal;font-family:Scada;-inkscape-font-specification:'Scada Bold';fill:#01b55a;fill-opacity:1;stroke-width:0.26458332"
           d="m 29.703613,288.26874 q -0.3175,0 -0.560916,-0.23283 -0.232834,-0.24342 -0.232834,-0.56092 0,-0.3175 0.232834,-0.55033 0.243416,-0.24342 0.560916,-0.24342 0.3175,0 0.550334,0.24342 0.243416,0.23283 0.243416,0.55033 0,0.3175 -0.243416,0.56092 -0.232834,0.23283 -0.550334,0.23283 z m -0.740833,5.97958 v -5.29166 h 1.481667 v 5.29166 z" />
      </g>
      <g
         inkscape:export-ydpi="300"
         inkscape:export-xdpi="300"
         transform="matrix(0.13636364,0,0,0.13636364,0.601327,282.7178)"
         id="g953">
        <path
           sodipodi:nodetypes="cccsccccc"
           inkscape:connector-curvature="0"
           id="path949"
           d="m 53.798616,85.333346 -29.10417,-1e-6 h -10e-7 c 0,0 -9.701388,0 -9.701388,-9.52815 0,-9.759136 0,-29.277408 0,-29.277408 h 9.701389 v 29.10417 h 29.10417 z"
           style="fill:#01b55a;fill-opacity:1;stroke:none;stroke-width:0.24253473px;stroke-linecap:butt;stroke-linejoin:miter;stroke-opacity:1" />
        <path
           style="fill:#00683e;fill-opacity:1;stroke:none;stroke-width:0.24253473px;stroke-linecap:butt;stroke-linejoin:miter;stroke-opacity:1"
           d="m 24.694445,36.826402 29.10417,10e-7 h 1e-6 c 0,0 9.701388,0 9.701388,9.52815 0,9.759136 0,29.277408 0,29.277408 h -9.701389 v -29.10417 h -29.10417 z"
           id="path965"
           inkscape:connector-curvature="0"
           sodipodi:nodetypes="cccsccccc" />
      </g>
    </g>
    <text
       xml:space="preserve"
       style="font-style:normal;font-weight:normal;font-size:10.58333302px;line-height:1.25;font-family:sans-serif;letter-spacing:0px;word-spacing:0px;fill:#000000;fill-opacity:1;stroke:none;stroke-width:0.26458332"
       x="-0.032383896"
       y="299.88147"
       id="text895"><tspan
         sodipodi:role="line"
         id="tspan893"
         x="-0.032383896"
         y="299.88147"
         style="font-size:1.41111112px;stroke-width:0.26458332">font: scada (https://fonts.google.com/specimen/Scada)</tspan></text>
  </g>
</svg>
